Coordinates
version=1
nRows=17
nColumns=34
inDegrees=yes

Units are S.I. units (second, meters, Newtons, ...)
If the header above contains a line with 'inDegrees', this indicates whether rotational values are in degrees (yes) or radians (no).

endheader
time	pelvis_tilt	pelvis_list	pelvis_rotation	pelvis_tx	pelvis_ty	pelvis_tz	hip_flexion_l	hip_adduction_l	hip_rotation_l	hip_flexion_r	hip_adduction_r	hip_rotation_r	knee_angle_l_beta	knee_angle_r_beta	knee_angle_l	knee_angle_r	ankle_angle_l	ankle_angle_r	subtalar_angle_l	subtalar_angle_r	mtp_angle_l	mtp_angle_r	lumbar_ext	lumbar_bend	lumbar_rota	shoulder_flexion_r	shoulder_adduction_r	shoulder_rotation_r	elbow_flexion_r	shoulder_flexion_l	shoulder_adduction_l	shoulder_rotation_l	elbow_flexion_l
      0.17000000	     16.29796147	      7.84203504	     -6.09373969	      0.05637451	      0.95160261	     -0.17028441	      2.76519375	     12.24150148	      4.28505990	    -22.80089242	     -9.49459928	      0.69747090	      0.27937813	      0.72599057	    -16.00718802	    -41.59619578	     -0.69407037	     -2.69826779	     -0.42358183	     12.64072815	     -1.50505397	     16.21567421	    -26.30670850	    -11.26390117	      2.74259414	      0.62318602	      5.41788373	    -22.27323936	     41.80758695	     -5.68794426	      4.09830197	    -23.53555088	     36.06093496
      0.18000000	     16.73574338	      7.83747722	     -6.25767215	      0.06795133	      0.95362827	     -0.17102270	      1.59494004	     12.50083139	      4.66359981	    -21.91483224	     -9.90028536	      0.60938720	      0.28108963	      0.76745141	    -16.10524950	    -43.97172661	     -0.06261849	     -3.91055584	     -0.59734531	     13.13129660	     -1.45202481	     16.38624454	    -26.78605170	    -11.26529097	      2.47057167	      0.47061321	      5.54249658	    -22.57815340	     41.46630054	     -5.65776066	      4.04516043	    -23.45378808	     36.13393618
      0.19000000	     16.50295447	      8.35218064	     -6.76368356	      0.07948362	      0.95436066	     -0.17137643	      1.23774859	     13.25461082	      4.70524633	    -19.93663573	    -10.95797675	      0.92119863	      0.28149592	      0.81426947	    -16.12852834	    -46.65420411	      0.28427905	     -4.89613881	     -1.53306870	     14.46519200	     -1.71763883	     16.68478784	    -26.44365805	    -11.92665323	      2.35954216	      0.30084861	      5.73309412	    -23.13588596	     41.03419659	     -5.80055904	      3.97991298	    -23.53990591	     36.62174096
      0.20000000	     16.85750959	      8.28310554	     -6.94052874	      0.09052389	      0.95629191	     -0.17191514	      0.02119156	     13.40981866	      5.06042867	    -18.80826827	    -11.23245939	      1.07368487	      0.27829271	      0.85190497	    -15.94499758	    -48.81055960	      0.96868784	     -5.43539498	     -1.74063032	     14.91308673	     -1.74792231	     16.84431388	    -26.87785995	    -11.87771588	      2.06669188	      0.22226178	      5.80778064	    -23.36955467	     40.70554833	     -5.74295246	      3.88284514	    -23.38257738	     36.76836699
      0.21000000	     17.14951518	      8.15543268	     -7.10039634	      0.10130619	      0.95815323	     -0.17248134	     -1.17155171	     13.47021151	      5.18249726	    -17.56367100	    -11.44445774	      1.18301173	      0.27314321	      0.88739034	    -15.64995304	    -50.84372119	      1.51583279	     -5.47898133	     -1.93818688	     15.28472154	     -1.80477126	     16.98490664	    -27.25703747	    -11.75866999	      1.84323168	      0.14113432	      5.81889309	    -23.57173680	     40.36375915	     -5.63258534	      3.79496836	    -23.24234085	     36.95730167
      0.22000000	     17.04849682	      8.24573557	     -7.72139365	      0.11187012	      0.95914533	     -0.17236574	     -1.88033704	     13.71644218	      4.74232098	    -15.58682182	    -11.92918384	      1.92584721	      0.26604900	      0.92548262	    -15.24348506	    -53.02624786	      2.02912941	     -4.68657330	     -2.36873333	     16.15090778	     -2.13325852	     17.00485241	    -27.10974822	    -12.04447277	      1.98132009	      0.09697401	      5.81353435	    -23.75136759	     39.84619408	     -5.62734403	      3.69713888	    -23.06224277	     37.43316522
      0.23000000	     17.13216683	      8.02931762	     -7.95869822	      0.12206361	      0.96070666	     -0.17270110	     -2.86290699	     13.63587959	      4.65604360	    -13.99296280	    -11.95128600	      2.27983101	      0.25938382	      0.95642561	    -14.86159824	    -54.79915113	      2.51119818	     -3.74945819	     -2.41149504	     16.51510516	     -2.43259640	     16.91878924	    -27.28792256	    -11.86579551	      1.92697439	      0.05189136	      5.75003570	    -23.84641300	     39.48945303	     -5.40309191	      3.56939647	    -22.84848133	     37.46688836
      0.24000000	     17.22255542	      7.70405857	     -8.13541681	      0.13201860	      0.96236019	     -0.17309047	     -3.89723528	     13.43196696	      4.55461897	    -12.44509773	    -11.77526394	      2.65895063	      0.25146454	      0.98273097	    -14.40785691	    -56.30633690	      2.99790429	     -2.65192199	     -2.36287097	     16.65302029	     -2.69252425	     16.77730758	    -27.49938251	    -11.53893274	      1.89593654	      0.01449242	      5.66973590	    -24.00285177	     39.18676975	     -5.12290141	      3.44526389	    -22.55380772	     37.53793793
      0.25000000	     17.35152486	      7.30925161	     -8.16802428	      0.14178136	      0.96417990	     -0.17363087	     -5.01977316	     13.14292780	      4.64434420	    -11.00888251	    -11.47992540	      2.84975556	      0.24248728	      1.00386995	    -13.89349795	    -57.51751151	      3.34127758	     -1.61045561	     -2.29754785	     16.59734862	     -2.80402563	     16.76640633	    -27.79863133	    -11.08513824	      1.70673556	      0.00610752	      5.60190005	    -24.15894420	     38.97507046	     -4.81712348	      3.31316087	    -22.33645339	     37.58994877
      0.26000000	     17.27131182	      6.81805019	     -8.27804399	      0.15149316	      0.96568936	     -0.17401548	     -5.88915243	     12.72124762	      4.41802535	     -9.35526697	    -11.03093835	      3.13220973	      0.23432649	      1.02134522	    -13.42591914	    -58.51877054	      3.78892687	     -0.09833483	     -2.21401547	     16.46292283	     -3.02089623	     16.53994608	    -27.85992224	    -10.57560995	      1.84950158	     -0.08221062	      5.47360541	    -24.39669073	     38.68919283	     -4.45758832	      3.17777244	    -21.96554588	     37.65066683
      0.27000000	     16.93779782	      6.37181274	     -8.33252481	      0.16083508	      0.96685707	     -0.17442433	     -6.42376263	     12.28977649	      4.13430558	     -7.37022676	    -10.51856340	      3.42954630	      0.22741482	      1.03707852	    -13.02990959	    -59.42022238	      4.33656980	      1.07839063	     -1.61647461	     16.23383997	     -3.67797689	     15.15974490	    -27.68589787	    -10.05559114	      2.43172690	     -0.43537685	      5.39619496	    -25.19637713	     38.87440771	     -3.68485230	      2.93842023	    -20.97368406	     37.15237626
      0.28000000	     16.91443276	      5.88811925	     -8.23206036	      0.17038749	      0.96849695	     -0.17525716	     -7.38061080	     11.88691561	      4.25663197	     -5.91591716	    -10.04203239	      3.39388186	      0.21842174	      1.04487194	    -12.51464394	    -59.86675256	      4.49772489	      2.30456742	     -1.64760356	     15.90465210	     -3.76622218	     15.08648811	    -27.83015641	     -9.43016370	      2.24743873	     -0.47731044	      5.29121924	    -25.45016795	     38.73769797	     -3.36230079	      2.84616962	    -20.79224040	     37.30264335
      0.29000000	     16.61917227	      5.28064252	     -8.02878076	      0.17972097	      0.96976094	     -0.17607992	     -7.96883642	     11.29153670	      4.32082064	     -4.21498942	     -9.31131230	      3.28254681	      0.21275389	      1.04946182	    -12.18990025	    -60.12973319	      4.94204382	      3.36778578	     -1.51916978	     15.11897648	     -4.24735598	     13.56032127	    -27.71298827	     -8.63168062	      2.77935483	     -0.88939689	      5.22317088	    -26.47750234	     39.00018068	     -2.55385406	      2.65660239	    -19.75884414	     36.87774679
      0.30000000	     16.42235429	      4.85365398	     -7.82962899	      0.18920350	      0.97106979	     -0.17698272	     -8.74583891	     10.89637593	      4.44698347	     -2.69048535	     -8.83689370	      3.09478776	      0.20257633	      1.04806183	    -11.60676881	    -60.04951946	      5.03800602	      4.36919047	     -1.51429853	     14.68824792	     -4.32714750	     13.42095627	    -27.67320338	     -8.03216415	      2.60516886	     -1.00190143	      5.12680064	    -26.77737147	     38.96886633	     -2.19484817	      2.55514405	    -19.62396518	     37.12497705
      0.31000000	     16.13397217	      4.36766194	     -7.53848475	      0.19864213	      0.97217052	     -0.17800065	     -9.38867147	     10.41476644	      4.66804942	     -1.15268564	     -8.26289860	      2.79018050	      0.19411436	      1.04222677	    -11.12193371	    -59.71519536	      5.24590343	      5.25164827	     -1.52740640	     13.92946338	     -4.40975687	     13.09718008	    -27.56250159	     -7.32531885	      2.49818722	     -1.18807879	      5.04987800	    -27.25939009	     38.99891920	     -1.77111786	      2.47091873	    -19.38107685	     37.33618510
      0.32000000	     15.84265710	      3.96637230	     -7.23136548	      0.20811538	      0.97311086	     -0.17907115	    -10.03904154	     10.01251454	      4.81981447	      0.35232979	     -7.81243156	      2.37951900	      0.18436410	      1.03278133	    -10.56328509	    -59.17401129	      5.38867519	      5.93444439	     -1.49996002	     13.18370568	     -4.48652864	     12.76536801	    -27.40526968	     -6.70347096	      2.38896356	     -1.40195046	      4.95988306	    -27.69630091	     39.10601277	     -1.34009398	      2.37269576	    -19.12999006	     37.60617949
      0.33000000	     15.71475792	      3.29238843	     -6.75583109	      0.21739744	      0.97435643	     -0.18011077	    -10.82354151	      9.29484622	      5.11939831	      1.47789642	     -6.96480325	      1.82509563	      0.17798595	      1.01753045	    -10.19784380	    -58.30020044	      5.84624850	      6.24647801	     -1.30084957	     11.61986887	     -4.77104234	      9.33567635	    -27.47701370	     -5.75128385	      3.23954727	     -2.15590579	      5.00679940	    -29.45118535	     39.98932876	     -0.18324502	      2.17787659	    -17.39368068	     36.96175697
